<?xml version="1.0" encoding="UTF-8"?>
<svg id="_レイヤー_1" data-name=" レイヤー 1" xmlns="http://www.w3.org/2000/svg" viewBox="0 0 471.76 107.04">
  <defs>
    <style>
      .cls-1 {
        fill: #fff;
        stroke-width: 0px;
      }
    </style>
  </defs>
  <path class="cls-1" d="M272,57.92l-6.43,1.07c-4.88-4.62-12.45-7.97-22.94-10.22-1.03-.22-2.05-.44-3.06-.65-14.83-3.13-24.01-5.52-26.07-14.09l11.14-1.86c.21-.04.35-.24.3-.45-.11-.54-.17-1.11-.17-1.72,0-5.65,5.53-9.71,13.03-9.71s15.72,2.05,22.67,5.56c.16.08.34.02.43-.13l4.96-9.14h0l2.86-5.28h0l1.91-3.52c.09-.16.03-.37-.14-.45-7.83-3.81-19.06-7.33-31.69-7.33-22.04,0-36.62,11.76-36.62,30.72,0,1.34,0,2.93.22,4.73.03.22.23.37.45.34l4.72-.79c2.72,13.04,16.38,15.94,30.77,18.97,1,.21,2.02.43,3.04.65,7.24,1.56,12.4,3.51,16.09,5.7l-16.73,2.78c-.51.08-.56.79-.07.95,8.08,2.79,11.93,7.04,11.68,11.87-.36,6.87-6.45,10.52-14.07,10.28-6.11-.19-19.37-2.48-28.73-10.69-.36-.31-.91-.22-1.14.2l-5.41,10.11h0l-2.84,5.3h0l-1.72,3.22c-.18.34-.07.77.25.98,14.59,9.39,30.78,11.72,41.09,11.72,14.38,0,21.91-3.4,29.1-10.83,5.5-5.68,8.82-13.01,8.82-22.23,0-5.11-1.65-10.82-5.4-15.95-.07-.09-.18-.14-.3-.12h0Z"/>
  <path class="cls-1" d="M49.01,1.59C23.37,3.03,2.37,23.41.19,49c-.59,6.98.21,13.68,2.14,19.9.05.17.23.28.4.25l3.9-.65c4.35,13.07,14.16,23.66,26.72,29.03l-5.97.99c-.37.06-.45.56-.13.73,7.37,4,15.8,6.28,24.77,6.28,12.37,0,23.72-4.32,32.65-11.53.12-.1.15-.27.08-.41l-2.23-3.97c-.08-.14-.24-.22-.4-.19l-34.39,5.71c-16.25-1.72-29.77-12.75-35.1-27.65l13.61-2.27c.22-.04.35-.27.26-.48-1.18-2.91-1.93-6.03-2.13-9.29-1.1-17.49,12.76-32.01,30.01-32.01,7.73,0,14.78,2.92,20.11,7.72.15.14.38.1.48-.08l9.82-17.63c.08-.14.04-.31-.08-.41C75.06,5.23,62.56.8,49.02,1.57v.02Z"/>
  <path class="cls-1" d="M180.94,73.32c-.06-.16-.22-.25-.39-.22l-3.42.57-12.4-31.52,3.71-.62c.19-.03.3-.23.24-.41l-13.9-36.51c-.05-.14-.18-.23-.33-.23h-27.53c-.15,0-.28.09-.33.23l-17.65,46.37c-.08.22.1.45.34.41l4.01-.67-13.34,35.76-4.62.77c-.13.02-.24.11-.29.23l-5.76,15.14c-.09.23.08.48.33.48h26.61c.15,0,.28-.09.33-.24l6.87-19.72c.09-.27-.13-.53-.41-.49l-16.23,2.7,13.34-35.76,15.74-2.62c.11-.02.2-.1.24-.2l4.26-12.23c.11-.31.55-.31.66,0l3.73,10.7c.05.14.19.23.34.2l13.6-2.27,12.4,31.51-14.79,2.45c-.22.04-.35.26-.27.46l8.72,25.04c.1.28.36.47.66.47h25.84c.49,0,.83-.49.66-.95l-10.97-28.82h0Z"/>
  <path class="cls-1" d="M326.36,4.38h-43.59v17.67c0,.22.2.39.41.35l37.17-6.2v33.68l-8.27,1.37c-.19.03-.34.2-.34.4v51.13c0,.17.14.31.31.31h23.79c.17,0,.31-.14.31-.31v-55.05c0-.25-.22-.44-.47-.4l-9.32,1.55V15.19l37.03-6.17h1.74v-4.65h-38.77Z"/>
  <path class="cls-1" d="M464.04,26.28c-.08-.13-.24-.2-.39-.18l-4.05.67c-8.66-13.09-23.51-21.75-40.35-21.75-22.47,0-41.41,15.41-46.82,36.22l-3.12.52c-.15.03-.28.14-.31.29-.83,3.69-1.28,7.52-1.28,11.47,0,29.38,24.36,53.08,53.99,51.98,27.26-1.01,49.36-23.42,50.03-50.69.26-10.48-2.6-20.27-7.69-28.54h0ZM419.24,11.03c13.78,0,26.04,6.62,33.78,16.84l-13.48,2.24c-.32.05-.42.45-.18.66,6.84,5.91,10.99,14.84,10.36,24.72-.95,14.95-13.09,27.09-28.03,28.04-17.5,1.12-32.04-12.75-32.04-30.01,0-5.54,1.51-10.73,4.12-15.19.16-.28-.06-.62-.38-.57l-14.39,2.39c5.57-16.89,21.5-29.13,40.23-29.13h.01Z"/>
</svg>