<?xml version="1.0" encoding="UTF-8"?>
<svg id="_レイヤー_1" data-name="レイヤー_1" xmlns="http://www.w3.org/2000/svg" viewBox="0 0 946.1 214.67">
  <path d="M98.29,3.19C46.87,6.08,4.75,46.95.38,98.27c-1.18,14,.42,27.44,4.29,39.91.1.34.46.56.8.5l7.82-1.3c8.72,26.21,28.4,47.45,53.59,58.22l-11.97,1.99c-.74.12-.9,1.12-.26,1.46,14.78,8.02,31.69,12.59,49.68,12.59,24.81,0,47.57-8.66,65.48-23.12.24-.2.3-.54.16-.82l-4.47-7.96c-.16-.28-.48-.44-.8-.38l-68.97,11.45c-32.59-3.45-59.7-25.57-70.39-55.45l27.29-4.55c.44-.08.7-.54.52-.96-2.37-5.84-3.87-12.09-4.27-18.63-2.21-35.08,25.59-64.2,60.18-64.2,15.5,0,29.64,5.86,40.33,15.48.3.28.76.2.96-.16l19.69-35.36c.16-.28.08-.62-.16-.82C150.53,10.49,125.46,1.6,98.31,3.15l-.02.04Z"/>
  <path d="M362.87,147.04c-.12-.32-.44-.5-.78-.44l-6.86,1.14-24.87-63.21,7.44-1.24c.38-.06.6-.46.48-.82l-27.88-73.22c-.1-.28-.36-.46-.66-.46h-55.21c-.3,0-.56.18-.66.46l-35.4,92.99c-.16.44.2.9.68.82l8.04-1.34-26.75,71.72-9.27,1.54c-.26.04-.48.22-.58.46l-11.55,30.36c-.18.46.16.96.66.96h53.37c.3,0,.56-.18.66-.48l13.78-39.55c.18-.54-.26-1.06-.82-.98l-32.55,5.41,26.75-71.72,31.57-5.25c.22-.04.4-.2.48-.4l8.54-24.53c.22-.62,1.1-.62,1.32,0l7.48,21.46c.1.28.38.46.68.4l27.27-4.55,24.87,63.19-29.66,4.91c-.44.08-.7.52-.54.92l17.49,50.22c.2.56.72.94,1.32.94h51.82c.98,0,1.66-.98,1.32-1.91l-22-57.8v-.02Z"/>
  <path d="M545.49,116.16l-12.9,2.15c-9.79-9.27-24.97-15.98-46.01-20.5-2.07-.44-4.11-.88-6.14-1.3-29.74-6.28-48.15-11.07-52.28-28.26l22.34-3.73c.42-.08.7-.48.6-.9-.22-1.08-.34-2.23-.34-3.45,0-11.33,11.09-19.47,26.13-19.47s31.53,4.11,45.46,11.15c.32.16.68.04.86-.26l9.95-18.33h0l5.74-10.59h0l3.83-7.06c.18-.32.06-.74-.28-.9-15.7-7.64-38.22-14.7-63.55-14.7-44.2,0-73.44,23.58-73.44,61.61,0,2.69,0,5.88.44,9.49.06.44.46.74.9.68l9.47-1.58c5.45,26.15,32.85,31.97,61.71,38.04,2.01.42,4.05.86,6.1,1.3,14.52,3.13,24.87,7.04,32.27,11.43l-33.55,5.58c-1.02.16-1.12,1.58-.14,1.91,16.2,5.6,23.93,14.12,23.42,23.81-.72,13.78-12.94,21.1-28.22,20.62-12.25-.38-38.85-4.97-57.62-21.44-.72-.62-1.83-.44-2.29.4l-10.85,20.28h0l-5.7,10.63h0l-3.45,6.46c-.36.68-.14,1.54.5,1.97,29.26,18.83,61.73,23.5,82.41,23.5,28.84,0,43.94-6.82,58.36-21.72,11.03-11.39,17.69-26.09,17.69-44.58,0-10.25-3.31-21.7-10.83-31.99-.14-.18-.36-.28-.6-.24v.02Z"/>
  <path d="M654.51,8.78h-87.42v35.44c0,.44.4.78.82.7l74.54-12.43v67.54l-16.59,2.75c-.38.06-.68.4-.68.8v102.54c0,.34.28.62.62.62h47.71c.34,0,.62-.28.62-.62v-110.4c0-.5-.44-.88-.94-.8l-18.69,3.11V30.46l74.26-12.37h3.49v-9.33h-77.75v.02Z"/>
  <path d="M930.63,52.7c-.16-.26-.48-.4-.78-.36l-8.12,1.34c-17.37-26.25-47.15-43.62-80.92-43.62-45.06,0-83.05,30.9-93.9,72.64l-6.26,1.04c-.3.06-.56.28-.62.58-1.66,7.4-2.57,15.08-2.57,23,0,58.92,48.85,106.45,108.28,104.25,54.67-2.03,98.99-46.97,100.33-101.66.52-21.02-5.21-40.65-15.42-57.24l-.02.02ZM840.78,22.12c27.64,0,52.22,13.28,67.75,33.77l-27.03,4.49c-.64.1-.84.9-.36,1.32,13.72,11.85,22.04,29.76,20.78,49.58-1.91,29.98-26.25,54.33-56.21,56.23-35.1,2.25-64.26-25.57-64.26-60.18,0-11.11,3.03-21.52,8.26-30.46.32-.56-.12-1.24-.76-1.14l-28.86,4.79c11.17-33.87,43.12-58.42,80.68-58.42l.02.02Z"/>
</svg>